<svg xmlns="http://www.w3.org/2000/svg" viewBox="0 0 1200 750" role="img" font-family="'Segoe UI', system-ui, -apple-system, Helvetica, Arial, sans-serif">
  <defs>
    <linearGradient id="bg" x1="0" y1="0" x2="1" y2="1">
      <stop offset="0" stop-color="#0c2d52"/>
      <stop offset="1" stop-color="#16467f"/>
    </linearGradient>
  </defs>
  <rect width="1200" height="750" fill="url(#bg)"/>
  <g stroke="#ffffff" stroke-opacity="0.045" stroke-width="1"><line x1="50" y1="0" x2="50" y2="750"/><line x1="100" y1="0" x2="100" y2="750"/><line x1="150" y1="0" x2="150" y2="750"/><line x1="200" y1="0" x2="200" y2="750"/><line x1="250" y1="0" x2="250" y2="750"/><line x1="300" y1="0" x2="300" y2="750"/><line x1="350" y1="0" x2="350" y2="750"/><line x1="400" y1="0" x2="400" y2="750"/><line x1="450" y1="0" x2="450" y2="750"/><line x1="500" y1="0" x2="500" y2="750"/><line x1="550" y1="0" x2="550" y2="750"/><line x1="600" y1="0" x2="600" y2="750"/><line x1="650" y1="0" x2="650" y2="750"/><line x1="700" y1="0" x2="700" y2="750"/><line x1="750" y1="0" x2="750" y2="750"/><line x1="800" y1="0" x2="800" y2="750"/><line x1="850" y1="0" x2="850" y2="750"/><line x1="900" y1="0" x2="900" y2="750"/><line x1="950" y1="0" x2="950" y2="750"/><line x1="1000" y1="0" x2="1000" y2="750"/><line x1="1050" y1="0" x2="1050" y2="750"/><line x1="1100" y1="0" x2="1100" y2="750"/><line x1="1150" y1="0" x2="1150" y2="750"/><line x1="0" y1="50" x2="1200" y2="50"/><line x1="0" y1="100" x2="1200" y2="100"/><line x1="0" y1="150" x2="1200" y2="150"/><line x1="0" y1="200" x2="1200" y2="200"/><line x1="0" y1="250" x2="1200" y2="250"/><line x1="0" y1="300" x2="1200" y2="300"/><line x1="0" y1="350" x2="1200" y2="350"/><line x1="0" y1="400" x2="1200" y2="400"/><line x1="0" y1="450" x2="1200" y2="450"/><line x1="0" y1="500" x2="1200" y2="500"/><line x1="0" y1="550" x2="1200" y2="550"/><line x1="0" y1="600" x2="1200" y2="600"/><line x1="0" y1="650" x2="1200" y2="650"/><line x1="0" y1="700" x2="1200" y2="700"/></g>
  <circle cx="1200" cy="0" r="300" fill="#2f86d4" fill-opacity="0.10"/>
  <circle cx="1080" cy="750" r="220" fill="#2f86d4" fill-opacity="0.07"/>
  <g transform="translate(792 188) scale(15)" fill="none" stroke="#ffffff" stroke-opacity="0.13" stroke-width="0.9" stroke-linecap="round" stroke-linejoin="round"><path d="M2 7h11v9H2z"/><path d="M13 10h4l3 3v3h-7z"/><circle cx="6" cy="18" r="1.6"/><circle cx="17" cy="18" r="1.6"/></g>
  <text x="86" y="150" font-size="23" font-weight="600" letter-spacing="6" fill="#9cc6f0">INDUSTRY</text>
  <text x="84" y="377.3333333333333" font-size="64" font-weight="700" fill="#ffffff" letter-spacing="0.5">Logistics &amp;</text><text x="84" y="455.3333333333333" font-size="64" font-weight="700" fill="#ffffff" letter-spacing="0.5">Transport</text>
  <rect x="86" y="489.3333333333333" width="104" height="6" rx="3" fill="#2f86d4"/>
  <text x="86" y="694" font-size="22" font-weight="600" letter-spacing="3" fill="#ffffff" fill-opacity="0.62">CALIBER SCALES</text>
  <text x="86" y="722" font-size="17" font-weight="400" letter-spacing="1.5" fill="#ffffff" fill-opacity="0.42">Industrial Weighing Systems</text>
</svg>
